<svg xmlns="http://www.w3.org/2000/svg" viewBox="0 0 512 512" fill="currentColor" fill-rule="evenodd">
  <g class="whistle-body">
    <path d="M121.3 231.3 144.8 233.8 167.6 243.7 364.2 369.4 366.6 373.1 366.6 419.3 364.8 424.3 353.1 434.1 343.8 434.7 278.5 392.8 260 386.7 248.9 387.3 240.9 390.4 224.3 406.4 207 418.1 193.4 423.6 175 427.3 150.9 426.1 134.3 421.2 117.6 413.2 100.4 401.5 77.6 378 65.2 356.5 56.6 325.6 56.6 298.5 64 272.6 75.1 254.8 94.2 238.7 106.5 233.8Z"></path>
    <path d="M184.2 158.6 216.9 161.1 232.3 166 250.1 174.6 353.7 238.7 453.5 303.5 456.6 308.4 456 350.9 454.2 355.2 382 410.7 379 411.3 377.7 368.8 375.9 364.5 253.2 283.7 253.8 280.7 260 275.7 318.6 235.7 317.9 231.3 258.2 194.4 248.9 198.7 244.6 221.5 209.5 226.4 189.7 243.1 152.1 224 130.6 219.6 112.1 220.3 101.6 222.7 77.6 235 94.8 207.9 120.7 183.3 150.3 166.6 167.6 161.1ZM444.9 327.5 387.6 370 388.2 387.9 445.5 344.8Z"></path>
    <path d="M260.6 209.2 298.8 233.8 258.8 262.2 249.5 268.3 246.4 268.3 208.9 243.7 216.9 237.5 255.7 232.6 258.2 228.9Z"></path>
  </g>
  <g class="whistle-lines">
    <path class="whistle-line" d="M161.9 88.8L167.7 128.9A9.6 9.6 0 0 0 186.8 126.1L181 86A9.6 9.6 0 0 0 161.9 88.8Z"></path>
    <path class="whistle-line" d="M224.8 95.4L207.9 130.8A9.8 9.8 0 0 0 225.6 139.2L242.4 103.9A9.8 9.8 0 0 0 224.8 95.4Z"></path>
    <path class="whistle-line" d="M145.2 135.4L119.9 103A9.9 9.9 0 0 0 104.2 115.2L129.6 147.7A9.9 9.9 0 0 0 145.2 135.4Z"></path>
  </g>
</svg>
